<svg version="1.1" id="Layer_1" xmlns="http://www.w3.org/2000/svg" xmlns:xlink="http://www.w3.org/1999/xlink" x="0px" y="0px"
	 width="100%" viewBox="0 0 608 608" enable-background="new 0 0 608 608" xml:space="preserve">
<path fill="#000000" opacity="1.000000" stroke="none" 
	d="
M283.766663,312.810089 
	C291.953766,284.313049 293.602936,255.838638 288.827087,226.970184 
	C288.221619,223.310379 287.067505,221.121872 282.770264,221.780075 
	C280.337036,222.152771 278.102539,221.090607 277.179443,218.515381 
	C276.184052,215.738464 277.938080,214.328690 279.981903,212.854126 
	C283.325867,210.441513 283.822174,205.202316 288.531586,204.880554 
	C288.556946,202.097000 286.549774,202.015656 285.638123,200.919220 
	C284.053223,199.013016 283.354095,196.702896 285.397064,195.165970 
	C288.413330,192.896820 287.316437,190.706375 286.257996,188.182617 
	C282.715454,179.735840 279.113190,171.311081 275.759583,162.789032 
	C273.177307,156.227112 274.118225,154.109100 280.373932,150.726349 
	C284.062469,148.731796 288.009247,147.352081 292.054779,146.390488 
	C295.176758,145.648438 296.728577,142.946030 295.942474,140.952667 
	C294.257019,136.678757 296.484253,133.274933 297.312042,129.421371 
	C294.166565,128.018143 291.350189,130.664459 287.955292,129.523117 
	C287.469147,123.755234 287.513062,117.866989 287.925568,112.124214 
	C291.184601,110.635315 293.777374,113.253708 296.500824,112.526985 
	C297.217712,112.007614 297.292236,111.325302 297.030334,110.698700 
	C295.295471,106.548119 293.367310,102.480476 300.228119,101.032669 
	C301.925201,100.674545 301.518097,98.565804 301.729675,97.113014 
	C302.186005,93.979630 304.096863,92.394012 307.205902,92.483582 
	C310.079010,92.566345 312.075226,94.145729 312.203400,97.035606 
	C312.325897,99.798119 313.305023,101.304100 316.030670,101.986336 
	C318.118347,102.508888 319.379395,103.609619 318.635742,106.360023 
	C317.001648,112.403847 317.171204,112.445999 323.236481,111.654160 
	C323.727966,111.590004 324.238525,111.577057 324.729034,111.634995 
	C325.037842,111.671471 325.325806,111.884460 326.067322,112.218163 
	C326.458099,117.916992 326.493042,123.805878 326.033478,129.637497 
	C325.068909,129.863525 324.578064,130.113464 324.117798,130.066101 
	C317.556641,129.391174 317.557190,129.381546 318.669159,135.966461 
	C318.696686,136.129333 318.848175,136.316086 318.802338,136.440201 
	C315.554993,145.233749 321.843048,146.282471 327.879913,148.317047 
	C340.673126,152.628708 341.523438,154.739990 336.624756,167.219238 
	C333.826294,174.348251 330.775604,181.379791 327.750214,188.417267 
	C326.774750,190.686340 326.267761,192.392639 328.468811,194.590073 
	C331.355408,197.471939 330.949738,198.111679 325.004120,204.509216 
	C330.490631,205.496964 331.025208,211.268921 335.138794,213.697876 
	C336.862335,214.715591 337.576813,216.465454 336.968201,218.457565 
	C336.356903,220.458435 334.783417,221.550110 332.777435,221.314713 
	C327.225769,220.663269 325.706268,223.735977 324.926208,228.546921 
	C320.904022,253.352737 321.945251,277.944092 327.528320,302.385223 
	C328.490448,306.597137 329.672394,310.760803 330.824982,314.926727 
	C332.041260,319.322723 333.472443,323.464020 338.612274,325.005646 
	C340.821838,325.668396 342.158234,327.893738 341.923126,330.155884 
	C341.204407,337.070618 345.466705,341.249756 349.736664,345.549133 
	C352.418396,348.249329 355.261383,350.796814 356.289795,354.778381 
	C357.630707,359.970001 355.561005,363.855194 352.202637,366.868896 
	C351.854187,368.786255 353.227325,369.306610 353.717529,370.304932 
	C355.593140,374.125092 354.268250,377.128937 350.249023,378.364594 
	C347.827057,379.109161 345.357300,379.260895 342.842438,379.258728 
	C318.842590,379.238037 294.842743,379.248779 270.842896,379.237610 
	C269.512421,379.236969 268.165619,379.234985 266.854248,379.043182 
	C259.046997,377.901642 257.516144,374.330292 262.085175,367.960419 
	C262.052826,366.455109 260.744965,365.758209 259.951050,364.744385 
	C256.513550,360.354553 256.449066,354.513794 260.118988,350.042572 
	C262.757629,346.827789 265.676758,343.839508 268.528778,340.804688 
	C270.795074,338.393127 272.238037,335.691376 271.960541,332.282227 
	C271.617920,328.073059 273.334595,325.197235 277.406830,323.856262 
	C282.630707,322.135986 281.776764,316.866577 283.766663,312.810089 
z"/>
<path fill="#000000" opacity="1.000000" stroke="none" 
	d="
M209.003006,342.348083 
	C209.108154,339.861633 211.370239,339.287323 212.123215,337.698730 
	C206.637451,329.547699 206.696991,326.846588 212.904327,318.996033 
	C216.330231,314.663208 219.892838,310.420166 220.553970,304.682556 
	C220.955170,301.200745 225.110352,301.552643 226.487640,298.140381 
	C222.480545,296.531281 218.788971,294.526550 217.275269,289.843140 
	C216.286362,286.783539 216.055893,284.246338 217.294067,281.250854 
	C221.951691,269.982849 229.321182,260.581818 237.250717,251.537613 
	C238.238708,250.410736 239.374557,249.398773 240.258301,248.198395 
	C241.836945,246.054184 245.536301,244.390610 243.843826,241.284851 
	C242.187531,238.245499 238.468246,239.113739 235.587479,239.619980 
	C230.266449,240.555023 225.172073,242.023209 222.619888,247.668488 
	C221.070419,251.095825 217.878799,251.417419 214.557739,251.380112 
	C211.392670,251.344528 208.418045,251.362534 208.271057,246.959381 
	C208.224655,245.569626 206.867050,245.203400 205.620895,245.252289 
	C201.650742,245.408081 200.546478,242.681061 199.948181,239.563797 
	C198.678787,232.950058 198.747635,227.059570 204.863831,222.084305 
	C210.251022,217.702042 214.449783,211.924072 218.064056,205.879745 
	C219.456894,203.550446 221.433029,201.774628 223.410492,199.983337 
	C227.802368,196.004974 227.821167,195.345840 223.808182,190.752945 
	C222.712860,189.499359 221.547318,188.294373 220.572098,186.952209 
	C219.602753,185.618118 218.539017,184.156647 219.427612,182.379486 
	C220.329926,180.574905 222.120346,180.637665 223.791901,180.651596 
	C227.545258,180.682861 230.968002,182.084534 234.310806,183.535431 
	C239.814926,185.924408 245.301498,188.389969 251.330643,188.987183 
	C259.094025,189.756165 262.309937,194.864548 263.645447,202.105255 
	C266.398468,200.762482 265.065491,198.138000 266.324432,196.751068 
	C272.396362,198.272629 276.349091,205.253876 274.867859,211.839157 
	C272.397369,222.822388 273.048981,223.834579 284.433624,226.089600 
	C284.349762,233.072906 279.943909,238.642105 277.618011,245.217300 
	C281.661804,245.271042 282.567749,240.489960 286.587067,240.380554 
	C287.368011,248.882523 290.508179,257.454132 281.756317,264.014343 
	C278.180756,266.694489 275.033600,269.946167 271.177704,273.397827 
	C277.122406,273.581451 281.342010,269.723633 287.137604,268.894806 
	C287.457489,276.469452 287.894867,283.491577 279.734161,287.031372 
	C280.228943,289.179016 283.772400,288.719727 282.458374,291.457977 
	C281.473511,293.510376 281.104614,296.046112 278.133636,296.359589 
	C276.601227,296.521332 274.975372,296.846771 274.840332,298.745422 
	C274.722717,300.398743 276.286621,300.931030 277.466553,301.380981 
	C281.178162,302.796448 281.145233,306.431824 280.842499,308.968018 
	C280.250946,313.923340 279.672302,319.272430 273.805756,321.735748 
	C269.619598,323.493500 268.600677,327.429779 268.368011,331.657806 
	C267.930328,339.610718 257.745911,349.182159 249.840454,349.179535 
	C239.513321,349.176147 229.184952,349.271027 218.859512,349.137054 
	C212.060684,349.048828 209.775192,347.411865 209.003006,342.348083 
z"/>
<path fill="#000000" opacity="1.000000" stroke="none" 
	d="
M402.914062,322.265320 
	C406.904449,328.626617 406.694244,331.130493 401.906555,337.323730 
	C401.624695,338.632721 402.855499,338.906891 403.461090,339.619751 
	C406.354034,343.025299 405.351471,346.811646 401.158051,348.137512 
	C399.736908,348.586823 398.235748,349.034546 396.767944,349.045288 
	C384.609222,349.134399 372.449738,349.117767 360.290497,349.141724 
	C358.681152,349.144867 357.450958,348.468689 356.361816,347.303406 
	C353.746399,344.505249 351.045349,341.787292 348.416260,339.001678 
	C346.509796,336.981689 345.465118,334.620239 345.638672,331.763519 
	C345.930573,326.958527 344.113403,323.308868 339.584381,321.298065 
	C334.668732,319.115540 334.354279,314.351227 333.286560,310.064362 
	C332.613312,307.361206 335.778229,307.364532 336.931274,305.469940 
	C333.493530,301.849243 331.629578,298.168854 337.683075,294.993530 
	C339.231079,294.181580 339.284637,292.074463 339.437836,290.476166 
	C341.153748,272.572906 342.541199,254.593307 341.370544,236.663589 
	C341.092834,232.409439 341.526611,227.434250 339.282227,223.218124 
	C339.150269,222.970261 339.179260,222.510788 339.324127,222.259933 
	C343.179535,215.583389 338.650116,211.193985 334.832672,206.889481 
	C332.852295,204.656433 331.847382,202.991440 333.148071,199.939758 
	C333.915955,198.138199 333.288422,195.741882 333.288422,193.773743 
	C335.342834,192.281067 337.410309,192.943481 339.349182,192.743027 
	C342.844727,192.381607 344.717010,193.588287 344.411560,197.458344 
	C344.222290,199.856155 344.475555,202.509491 347.792114,202.422714 
	C350.980469,202.339310 350.706146,199.584961 350.576996,197.534973 
	C350.339203,193.760696 351.968414,192.542618 355.578735,192.686844 
	C360.734558,192.892792 365.910309,192.885971 371.066925,192.690109 
	C374.750854,192.550186 376.819672,193.506470 376.379852,197.690430 
	C376.135590,200.014175 376.040833,202.704880 379.627502,202.543961 
	C382.775787,202.402710 382.753510,199.909775 382.603455,197.768967 
	C382.104218,190.647842 387.376465,193.206848 390.834564,192.748230 
	C394.893250,192.209930 396.673889,193.892395 396.338043,198.095139 
	C396.086731,201.239838 395.870483,204.491318 396.379089,207.573044 
	C397.836914,216.406265 391.614655,220.733795 386.236786,226.086868 
	C387.772522,228.454407 388.707855,231.085754 386.043427,233.867401 
	C384.720276,235.248795 385.344727,237.380371 385.315460,239.188614 
	C385.048370,255.685272 386.331207,272.118713 387.439484,288.556000 
	C387.649139,291.665375 388.255280,294.446747 391.421326,296.571503 
	C395.325989,299.191986 392.733215,302.370819 390.590973,305.304474 
	C396.451721,309.589722 395.771362,318.452576 402.914062,322.265320 
z"/>
<path fill="#000000" opacity="1.000000" stroke="none" 
	d="
M236.612823,459.173584 
	C241.506943,459.201508 245.994080,459.118927 250.476608,459.227570 
	C251.871429,459.261383 253.732300,459.165894 254.001221,461.202667 
	C254.258789,463.153534 252.647491,463.767670 251.208710,464.129333 
	C249.179184,464.639557 247.818497,465.760895 247.736206,467.822876 
	C247.530777,472.970520 247.435638,478.125854 247.453156,483.277588 
	C247.460800,485.527527 249.300873,485.809509 251.033661,485.821381 
	C258.023926,485.869293 265.014648,485.853638 272.005096,485.879974 
	C274.759796,485.890381 275.849945,484.473267 275.793152,481.814178 
	C275.714966,478.153564 275.696320,474.489014 275.771301,470.828613 
	C275.840088,467.472137 275.721802,464.414612 271.315857,463.876678 
	C270.140778,463.733215 269.261200,462.738159 269.355560,461.353729 
	C269.454468,459.902771 270.435150,459.388550 271.747803,459.371307 
	C277.234863,459.299194 282.722076,459.202301 288.209259,459.204041 
	C289.711761,459.204498 291.363495,459.389160 291.572693,461.399658 
	C291.746979,463.074646 290.524933,463.815979 289.166260,464.090271 
	C285.794861,464.770874 285.210876,467.098267 285.222412,470.039581 
	C285.273956,483.189636 285.290649,496.340118 285.232391,509.490082 
	C285.218567,512.608643 285.709290,515.136597 289.373779,515.763611 
	C290.875427,516.020508 291.815369,516.977722 291.476318,518.583191 
	C291.188416,519.946472 289.992096,520.286011 288.763977,520.290039 
	C283.271362,520.308044 277.778595,520.300171 272.285980,520.283997 
	C271.058533,520.280396 269.892670,520.019043 269.608917,518.590698 
	C269.289490,516.983154 270.117310,516.017578 271.647095,515.729980 
	C275.251343,515.052246 275.840485,512.569763 275.763824,509.423126 
	C275.658417,505.098694 275.728180,500.767151 275.834259,496.441345 
	C275.903839,493.602325 274.830688,492.024811 271.820526,492.030701 
	C264.997162,492.044067 258.173615,491.992340 251.350266,492.008209 
	C248.436447,492.014984 247.238937,493.544769 247.322372,496.449493 
	C247.441833,500.607605 247.421875,504.773621 247.321838,508.932922 
	C247.237991,512.419128 247.816711,515.273621 252.014923,515.835510 
	C253.284958,516.005493 254.128250,516.849426 253.998077,518.260681 
	C253.834991,520.028564 252.471771,520.290649 251.096985,520.298218 
	C245.770706,520.327271 240.443970,520.311462 235.117661,520.274475 
	C233.726028,520.264771 232.348877,519.962036 232.107330,518.294312 
	C231.857300,516.568115 233.107407,515.966125 234.512375,515.722961 
	C237.813324,515.151672 238.673889,513.020996 238.652191,509.957397 
	C238.563782,497.473297 238.677872,484.987366 238.529602,472.504364 
	C238.485504,468.792572 238.828644,464.568756 233.454376,463.668579 
	C232.198441,463.458252 231.584808,462.174805 232.001221,460.899475 
	C232.686752,458.799988 234.599030,459.252869 236.612823,459.173584 
z"/>
<path fill="#000000" opacity="1.000000" stroke="none" 
	d="
M378.839813,428.248230 
	C383.593506,434.195038 383.354126,436.236389 377.202026,439.868439 
	C368.891296,444.774811 360.215271,445.491913 351.500488,440.996887 
	C342.532745,436.371368 338.436096,428.538544 337.686554,418.755554 
	C337.026367,410.139435 339.004730,402.232727 344.319855,395.283234 
	C347.769958,390.772217 352.501221,388.590546 357.974762,387.826843 
	C361.512604,387.333282 363.613739,388.739624 364.337799,392.443420 
	C366.127930,401.600555 363.527649,409.514862 357.234406,417.287201 
	C365.066315,419.986023 372.604248,422.561035 378.839813,428.248230 
z"/>
<path fill="#000000" opacity="1.000000" stroke="none" 
	d="
M276.334351,417.865906 
	C275.799347,428.866882 271.042816,436.872681 261.492920,441.420593 
	C252.508224,445.699341 243.657242,444.557709 235.466110,438.996277 
	C230.846771,435.860016 230.578110,433.346100 234.395508,429.259277 
	C238.808685,424.534729 244.370514,421.612244 250.422119,419.465393 
	C252.231567,418.823517 254.476425,419.105530 256.131622,416.853577 
	C252.999146,412.193634 250.081726,407.264221 249.318985,401.301300 
	C248.926834,398.235504 249.101166,395.372528 249.672546,392.424347 
	C250.377853,388.785034 252.615021,387.384613 256.155670,387.899139 
	C262.783173,388.862305 268.036285,391.956818 271.489288,397.849335 
	C275.032410,403.895569 276.815826,410.364166 276.334351,417.865906 
z"/>
<path fill="#000000" opacity="1.000000" stroke="none" 
	d="
M239.657532,400.342712 
	C237.286438,414.106628 229.631714,422.698059 217.544434,424.586212 
	C207.740555,426.117645 199.648087,422.576935 193.419754,414.801575 
	C190.840195,411.581177 191.626541,409.118011 194.793793,406.883331 
	C200.415390,402.916931 206.799576,401.133850 213.502914,400.803131 
	C218.222580,400.570343 219.085556,398.986053 217.728546,394.571075 
	C215.735565,388.086945 215.952667,381.515472 218.722061,375.107147 
	C220.229614,371.618713 222.639847,370.840942 225.939163,371.947418 
	C231.845917,373.928314 235.846878,377.996948 237.939728,383.772064 
	C239.822723,388.968170 240.749954,394.359161 239.657532,400.342712 
z"/>
<path fill="#000000" opacity="1.000000" stroke="none" 
	d="
M375.112488,386.520355 
	C377.115570,379.471558 380.981140,374.562500 387.625641,372.128967 
	C391.338959,370.768982 393.920807,371.556580 395.509827,375.589050 
	C398.069580,382.085022 397.949188,388.554901 396.249847,395.150909 
	C395.845734,396.719391 394.584839,398.064941 395.089661,400.390991 
	C400.865662,400.747192 406.845276,401.027985 412.364258,403.439362 
	C416.255676,405.139679 421.599365,406.043091 421.927551,411.049866 
	C422.234711,415.735718 417.726929,418.341919 414.139038,420.721313 
	C399.856018,430.193329 381.468781,423.370819 375.850677,406.550232 
	C373.701385,400.115326 372.985046,393.556885 375.112488,386.520355 
z"/>
<path fill="#000000" opacity="1.000000" stroke="none" 
	d="
M164.398346,389.576355 
	C161.457687,385.962189 157.471298,382.458130 159.249878,378.035858 
	C160.911118,373.905365 166.147980,374.063232 170.161636,373.242371 
	C175.794525,372.090302 181.308075,374.180115 187.012390,374.270020 
	C188.209869,371.011200 187.496689,367.833984 187.610184,364.737579 
	C187.786209,359.935394 189.160675,355.564941 191.902298,351.669006 
	C195.182251,347.008087 197.659485,346.654083 202.280243,350.108459 
	C205.757919,352.708344 207.697525,356.354279 208.803314,360.460724 
	C212.064041,372.569733 205.674911,387.950562 194.836914,394.176697 
	C184.828156,399.926483 173.338043,398.276978 164.398346,389.576355 
z"/>
<path fill="#000000" opacity="1.000000" stroke="none" 
	d="
M409.806396,385.051758 
	C404.583588,376.506775 403.022614,367.699829 405.876953,358.432159 
	C407.530457,353.063416 411.137085,348.121368 416.805573,348.119934 
	C422.293274,348.118561 423.583740,354.079559 425.301849,358.569153 
	C427.267242,363.704742 425.896729,369.092102 426.453888,374.768707 
	C432.986420,373.531097 439.277191,372.365692 445.822968,373.575897 
	C456.167999,375.488495 457.720551,379.003967 451.516754,387.473450 
	C442.812225,399.356995 422.122498,402.996552 409.806396,385.051758 
z"/>
<path fill="#000000" opacity="1.000000" stroke="none" 
	d="
M146.308258,336.616150 
	C152.317307,336.967651 157.184784,339.791779 162.604248,341.375977 
	C164.248093,339.421112 163.999405,336.946198 164.558685,334.799286 
	C165.945160,329.477112 168.472809,324.898346 172.585205,321.273773 
	C176.850922,317.514099 179.611450,317.823425 182.978592,322.297546 
	C184.911270,324.865601 186.289520,327.716248 186.552399,330.959045 
	C187.518677,342.879120 182.382431,352.068512 172.952515,358.670319 
	C164.137817,364.841370 154.608643,365.233002 145.292343,359.378174 
	C139.680664,355.851532 136.167068,350.645691 134.800934,344.173370 
	C133.546753,338.231476 134.458954,337.067352 140.437729,336.439209 
	C142.229782,336.250916 144.070221,336.522888 146.308258,336.616150 
z"/>
<path fill="#000000" opacity="1.000000" stroke="none" 
	d="
M443.115723,360.112122 
	C432.464294,352.875488 426.323944,343.605194 427.664215,330.597473 
	C428.182220,325.570038 430.261902,320.605682 435.176575,319.131531 
	C440.063660,317.665680 442.620026,322.507843 445.271698,325.825684 
	C448.933319,330.407196 449.746460,336.056335 450.584717,342.007568 
	C456.561005,339.717438 462.043213,336.823761 468.285339,336.530060 
	C472.075348,336.351746 476.756378,335.249054 478.953949,338.646667 
	C481.187256,342.099457 479.060120,346.330994 477.141479,349.897644 
	C470.235626,362.735260 457.382721,366.689789 443.115723,360.112122 
z"/>
<path fill="#000000" opacity="1.000000" stroke="none" 
	d="
M170.921814,305.452942 
	C163.708420,320.226166 149.568436,327.288361 135.978012,323.195709 
	C125.935417,320.171478 118.299675,308.143738 119.729080,297.799835 
	C120.154930,294.718170 121.715927,293.537720 124.747002,293.600800 
	C130.648972,293.723633 135.708298,296.028076 140.511841,299.194305 
	C142.697006,300.634644 144.474304,302.755249 147.221085,303.424561 
	C149.312286,301.698669 149.701279,299.083862 150.870270,296.941315 
	C153.453049,292.207489 157.272705,288.906311 162.044998,286.608887 
	C165.825058,284.789062 168.688995,285.432343 170.582657,289.546173 
	C172.958328,294.707184 172.856262,299.843262 170.921814,305.452942 
z"/>
<path fill="#000000" opacity="1.000000" stroke="none" 
	d="
M493.149353,294.822937 
	C496.665863,306.942047 489.217834,319.971802 477.323364,323.351227 
	C460.579346,328.108459 441.269348,313.723419 441.676361,296.802734 
	C441.776276,292.648071 442.628815,288.192047 446.226196,286.280975 
	C450.175385,284.182983 453.794189,287.416809 456.958893,289.837891 
	C461.593079,293.383209 464.234772,298.358032 466.176971,304.197235 
	C474.651825,299.015808 481.883270,291.316742 493.149353,294.822937 
z"/>
<path fill="#000000" opacity="1.000000" stroke="none" 
	d="
M138.156891,283.125610 
	C121.186096,281.707153 113.277580,267.598846 115.690651,254.540833 
	C116.963745,247.651611 119.254211,246.364807 125.636269,249.440399 
	C132.077301,252.544418 136.815140,257.619049 140.776657,263.432495 
	C143.822632,260.522278 146.461975,257.834320 149.293655,255.367142 
	C150.652573,254.183167 152.278458,253.171219 153.952911,252.511414 
	C157.594162,251.076614 161.800552,248.393463 165.149933,251.584564 
	C168.483017,254.760147 168.004837,259.690491 166.726578,263.896759 
	C163.542709,274.373596 155.573898,279.633179 145.507645,282.240997 
	C143.273941,282.819672 140.899857,282.856476 138.156891,283.125610 
z"/>
<path fill="#000000" opacity="1.000000" stroke="none" 
	d="
M482.961548,252.889191 
	C484.927521,251.599548 486.506073,250.328781 488.283478,249.469025 
	C494.727753,246.351822 497.482971,247.912354 498.300323,254.979080 
	C500.670502,275.471649 482.641388,288.947540 463.672516,280.674957 
	C454.178528,276.534454 446.936829,270.210297 446.734802,258.815674 
	C446.602478,251.352142 449.552643,249.363037 456.760101,251.350159 
	C463.753723,253.278305 468.438263,258.045624 472.468384,264.200165 
	C476.034210,260.319275 478.522186,255.911591 482.961548,252.889191 
z"/>
<path fill="#000000" opacity="1.000000" stroke="none" 
	d="
M147.358887,221.937775 
	C152.774719,217.039627 158.862381,214.739059 165.826599,214.891907 
	C169.525803,214.973083 171.459213,216.520935 171.491592,220.711395 
	C171.538025,226.720779 169.222763,231.288544 164.783630,235.064224 
	C151.774857,246.128693 125.470200,244.800537 121.114471,222.461441 
	C119.940414,216.440033 121.477921,210.911194 124.308487,205.669525 
	C125.993217,202.549744 128.380234,202.081573 131.352386,204.082275 
	C137.096741,207.949158 140.685959,213.413162 143.400604,219.642426 
	C143.991089,220.997421 143.767609,224.505890 147.358887,221.937775 
z"/>
<path fill="#000000" opacity="1.000000" stroke="none" 
	d="
M481.365112,238.627533 
	C470.240601,243.745041 459.976868,242.566101 450.377808,235.833176 
	C445.170013,232.180359 442.423309,227.155823 442.537537,220.539185 
	C442.604858,216.639267 444.451294,215.176193 447.957031,214.946396 
	C454.262817,214.533066 459.657745,216.968124 464.741852,220.331131 
	C465.976929,221.148102 467.104980,222.126755 468.751373,223.391434 
	C470.105835,220.585236 471.285706,217.944656 472.633270,215.392609 
	C474.916626,211.068375 477.973877,207.380997 481.972687,204.505127 
	C485.393250,202.045135 487.889465,202.544815 490.074463,206.350204 
	C496.571716,217.665665 493.157440,231.045517 481.365112,238.627533 
z"/>
<path fill="#000000" opacity="1.000000" stroke="none" 
	d="
M328.911377,514.790161 
	C335.492645,515.653564 340.174286,514.126099 342.240601,507.609833 
	C342.809937,505.814514 344.124786,504.382996 346.468536,505.385529 
	C348.730438,506.353088 347.842804,508.007751 347.490509,509.612671 
	C345.133362,520.350647 345.142395,520.345947 334.230621,520.334961 
	C324.069214,520.324707 313.907562,520.365662 303.746643,520.295593 
	C302.055817,520.283997 299.706329,521.005127 299.153351,518.500366 
	C298.650177,516.220886 300.706451,515.929016 302.294220,515.462280 
	C304.642151,514.772156 305.332581,512.808044 305.347015,510.788940 
	C305.445831,496.969818 305.473633,483.149384 305.380524,469.330322 
	C305.363068,466.736725 304.416046,464.467163 301.241241,463.943390 
	C299.923889,463.726105 298.706726,462.866577 299.039032,461.151733 
	C299.369904,459.444336 300.889130,459.256165 302.159210,459.243561 
	C314.817078,459.117706 327.475769,459.066742 340.134308,459.025330 
	C341.607361,459.020508 342.774506,459.720245 343.025177,461.257782 
	C343.506042,464.207397 343.903198,467.173187 344.233246,470.143616 
	C344.371704,471.389679 343.883484,472.488556 342.564667,472.883545 
	C341.027985,473.343719 340.135773,472.534698 339.341217,471.258423 
	C337.898926,468.941528 337.901703,465.038513 334.608002,464.694092 
	C328.844910,464.091431 322.972626,463.762512 317.218903,465.104187 
	C314.816010,465.664490 314.346680,467.632233 314.340942,469.768768 
	C314.330658,473.599945 314.441925,477.434784 314.309265,481.261383 
	C314.188171,484.754608 315.961487,486.060425 319.171906,486.053162 
	C321.670227,486.047546 324.172882,485.977142 326.665863,486.096954 
	C329.757416,486.245605 331.785065,485.240143 332.339417,481.910187 
	C332.577911,480.477417 333.000000,478.809937 335.086121,479.025543 
	C337.490845,479.274109 337.259888,481.205444 337.284576,482.817169 
	C337.348389,486.980682 337.342255,491.146240 337.291107,495.310089 
	C337.273224,496.767029 337.451447,498.503876 335.438385,498.896027 
	C333.507324,499.272217 332.939606,497.836487 332.306549,496.385803 
	C330.304413,491.797729 319.744995,489.331879 315.759857,492.438507 
	C314.560547,493.373444 314.336639,494.628632 314.333923,495.990479 
	C314.324341,500.821228 314.408234,505.653534 314.308899,510.482178 
	C314.248413,513.422913 315.474335,514.794739 318.436890,514.750732 
	C321.767242,514.701233 325.099426,514.775269 328.911377,514.790161 
z"/>
<path fill="#000000" opacity="1.000000" stroke="none" 
	d="
M148.303619,161.653427 
	C155.861755,167.508057 156.985168,176.101288 158.875198,184.167542 
	C161.180740,184.765320 162.656021,183.368698 164.313400,182.774475 
	C168.949295,181.112366 173.568619,180.365189 178.501694,181.490097 
	C185.529861,183.092773 186.857666,185.460297 183.736115,191.991455 
	C180.957413,197.805298 176.066513,200.959259 169.994980,202.616455 
	C154.046310,206.969574 138.335403,197.887329 136.239059,182.732910 
	C135.172470,175.022461 137.926285,168.340729 143.502060,162.885361 
	C144.732925,161.681076 146.114014,160.772110 148.303619,161.653427 
z"/>
<path fill="#000000" opacity="1.000000" stroke="none" 
	d="
M459.086121,170.339584 
	C461.344177,166.509521 462.592590,161.147385 467.364410,161.563080 
	C472.108582,161.976364 474.307373,166.883087 476.035248,171.062546 
	C482.177582,185.919800 472.186646,201.866806 455.887085,203.263199 
	C448.437805,203.901367 441.213806,203.230469 435.105957,198.237717 
	C430.828278,194.741013 427.320557,187.317749 429.250946,184.830505 
	C432.586090,180.533264 437.749146,180.565842 442.509125,181.144897 
	C446.701935,181.654968 450.772095,183.173355 455.117310,184.303940 
	C456.244354,179.522079 456.871826,174.891678 459.086121,170.339584 
z"/>
<path fill="#000000" opacity="1.000000" stroke="none" 
	d="
M383.945374,510.670563 
	C385.996979,504.930939 384.230682,500.829620 379.456787,498.034241 
	C376.160339,496.103943 372.689728,494.470551 369.292755,492.712585 
	C367.963165,492.024475 366.590576,491.413849 365.291443,490.673340 
	C356.748413,485.803772 353.333771,479.632629 354.979065,472.105774 
	C356.626099,464.570892 363.499359,459.240540 372.764832,458.649017 
	C377.568268,458.342377 382.432098,458.175995 387.148804,459.521149 
	C390.743958,460.546387 393.388336,470.830536 390.502625,473.114868 
	C387.821014,475.237518 386.783875,472.831696 385.897186,470.743744 
	C383.021973,463.973083 378.353149,461.863739 371.284790,464.139984 
	C363.530304,466.637177 361.773773,474.562897 367.746887,480.182800 
	C370.585236,482.853363 374.109039,484.386047 377.561920,486.054565 
	C380.854492,487.645599 384.234283,489.142395 387.289734,491.122009 
	C397.071259,497.459473 397.470581,509.976410 387.905060,516.592468 
	C378.213623,523.295593 367.763824,522.389160 357.371887,518.246155 
	C354.852570,517.241760 353.291931,506.270294 355.387665,504.561890 
	C357.498810,502.840973 358.919617,504.079224 359.935577,506.272217 
	C363.771454,514.551819 366.368744,516.121094 374.918884,515.749451 
	C378.665314,515.586609 381.684448,514.219604 383.945374,510.670563 
z"/>
<path fill="#000000" opacity="1.000000" stroke="none" 
	d="
M402.684448,470.167969 
	C405.278107,463.293579 410.734833,460.422089 416.906921,459.106110 
	C422.606415,457.890930 428.503204,458.054688 434.208374,459.639496 
	C437.819305,460.642548 440.364746,470.969666 437.439209,473.193665 
	C434.659698,475.306702 433.765717,472.658691 432.910950,470.678894 
	C429.723663,463.296814 422.340302,461.006134 415.613220,465.342743 
	C410.545776,468.609436 409.729797,474.555359 413.730469,479.069550 
	C416.928619,482.678253 421.253998,484.513031 425.505310,486.406677 
	C429.016357,487.970520 432.480225,489.619202 435.524170,491.958252 
	C443.449249,498.048126 443.852875,508.681335 436.507050,515.427979 
	C429.295959,522.050842 411.862915,523.449463 403.943726,518.040466 
	C401.880035,516.630920 400.496704,506.025482 402.396942,504.537994 
	C404.532104,502.866608 406.087250,504.070068 406.984070,506.269562 
	C408.081879,508.961884 408.008881,512.270264 411.232758,513.802673 
	C414.955353,515.572144 418.862366,516.059692 422.910217,515.692200 
	C427.079254,515.313843 430.339447,513.475464 431.490417,509.266602 
	C432.659760,504.990692 431.407959,501.119049 427.623505,498.786102 
	C423.389954,496.176270 418.820801,494.102478 414.357910,491.875061 
	C408.836853,489.119568 404.103394,485.631775 402.233063,479.367615 
	C401.347931,476.402985 401.445160,473.455200 402.684448,470.167969 
z"/>
<path fill="#000000" opacity="1.000000" stroke="none" 
	d="
M203.160309,458.664917 
	C208.979889,458.394531 214.237183,458.839355 219.465057,460.128021 
	C222.933533,460.983032 224.621964,462.749207 224.321976,466.412415 
	C224.145905,468.562469 224.325150,470.739716 224.287582,472.903748 
	C224.263870,474.270050 224.111526,475.630157 222.388519,475.956940 
	C220.762695,476.265320 219.641495,475.379913 219.407150,473.979034 
	C217.629227,463.350525 209.760956,463.606750 201.895462,464.276550 
	C193.366211,465.002838 187.841660,469.838867 185.139465,477.854248 
	C182.009674,487.138031 182.436829,496.320892 187.314682,504.855560 
	C191.983032,513.023621 199.502625,516.412720 208.791718,515.542786 
	C213.670151,515.085876 217.795944,513.203308 219.500092,507.984283 
	C219.905746,506.741852 220.655899,505.589417 221.375015,504.478027 
	C222.130157,503.310944 223.324463,503.408478 224.518295,503.667633 
	C226.011444,503.991791 226.119827,505.043640 226.088913,506.321381 
	C225.888474,514.605469 223.634033,517.542053 215.688126,519.814636 
	C206.515656,522.438110 197.453796,521.917542 188.885788,517.888916 
	C178.317230,512.919678 172.960663,504.384277 172.544830,492.544647 
	C172.067749,478.960510 176.848526,468.508575 189.293411,462.205597 
	C193.487686,460.081360 197.918167,458.691650 203.160309,458.664917 
z"/>
<path fill="#000000" opacity="1.000000" stroke="none" 
	d="
M173.960571,135.276749 
	C177.952484,141.495651 177.587479,148.205368 177.569489,154.557465 
	C178.992798,155.953598 180.276047,155.363815 181.568726,155.113907 
	C185.200668,154.411789 188.873962,154.254883 192.440750,155.290329 
	C195.412552,156.153061 199.243469,156.584152 199.953323,160.179825 
	C200.683472,163.878326 198.143143,166.812027 195.489548,169.156586 
	C187.711761,176.028656 172.193527,174.176559 164.126236,165.527603 
	C156.397919,157.242065 156.585159,144.583191 164.776703,136.780029 
	C167.197922,134.473602 169.924057,131.423615 173.960571,135.276749 
z"/>
<path fill="#000000" opacity="1.000000" stroke="none" 
	d="
M414.654358,158.870575 
	C421.216827,153.361496 428.526001,154.349625 436.113617,155.658417 
	C436.623779,150.028702 436.207184,144.704803 437.991180,139.639023 
	C440.564850,132.330933 443.863190,131.519272 449.482666,136.988342 
	C456.523132,143.840454 457.555023,155.046722 451.883362,163.060806 
	C444.997894,172.790039 430.526093,176.304245 420.721680,170.394638 
	C416.647644,167.939011 413.288147,164.721771 414.654358,158.870575 
z"/>
<path fill="#000000" opacity="1.000000" stroke="none" 
	d="
M366.651855,551.644165 
	C364.998016,553.914490 364.426270,556.931580 366.336639,558.065796 
	C370.136261,560.321655 373.487030,557.698425 376.532318,554.961975 
	C378.889862,557.901123 378.153168,561.223022 375.480743,561.409241 
	C366.495270,562.035583 357.439148,561.647461 347.815460,561.647461 
	C351.550781,555.480408 349.300140,550.285156 348.325989,545.024231 
	C346.862091,549.247375 345.444641,553.487549 343.904449,557.682678 
	C343.473633,558.856140 343.182312,560.418274 341.397980,560.364441 
	C339.742462,560.314575 339.224182,558.939758 338.760742,557.720093 
	C337.135254,553.442017 335.599152,549.130005 333.678955,544.915100 
	C334.126282,550.135803 329.855835,555.553223 335.130066,561.004272 
	C328.849487,562.675110 323.106659,561.878418 317.561829,561.626526 
	C316.738342,559.259521 319.780426,557.394104 317.384308,556.066345 
	C315.163086,554.835510 312.465149,554.925415 310.178070,556.020020 
	C307.715057,557.198853 310.074005,559.242798 309.802704,560.959167 
	C307.467957,562.411743 305.177307,562.350037 302.508759,560.789490 
	C306.103973,554.719055 307.917603,548.007019 310.564972,541.627686 
	C311.277161,539.911438 311.885925,538.083374 314.245850,538.184631 
	C316.612823,538.286194 316.992859,540.237488 317.644653,541.941345 
	C319.428467,546.604614 321.262238,551.248901 323.021179,555.921387 
	C323.658417,557.614136 324.464264,559.020874 326.573181,558.611267 
	C328.470306,558.242737 328.545288,556.656738 328.715210,555.127197 
	C329.045471,552.154541 329.319672,549.166504 329.857880,546.228943 
	C330.328094,543.662354 330.559784,541.331848 327.601807,539.532776 
	C331.181549,539.217712 335.001556,536.316162 337.413208,541.011658 
	C339.063690,544.225159 339.949005,547.831604 341.597137,552.438416 
	C342.874207,549.219116 343.847046,547.040039 344.610931,544.789978 
	C346.900024,538.047363 348.173340,537.361206 356.144440,539.209534 
	C350.716125,544.434326 354.867096,550.261169 354.839691,555.849792 
	C354.830078,557.807251 356.231323,559.357910 358.476410,559.108032 
	C360.636627,558.867737 360.951965,557.064636 360.823578,555.328491 
	C360.437225,550.104553 362.076630,544.684204 359.022156,539.297180 
	C364.031311,537.583496 368.932983,537.783936 373.806366,538.544128 
	C377.090912,539.056519 376.362213,541.291443 375.499023,543.797546 
	C372.327362,542.508240 369.364441,539.424500 366.034698,542.324158 
	C364.744873,543.447388 364.927490,545.743774 365.952667,546.980591 
	C367.938263,549.376099 369.769684,546.448181 371.965454,546.254456 
	C373.851837,548.339844 373.443787,550.612183 372.618469,552.936707 
	C370.246582,553.680359 369.143799,550.527283 366.651855,551.644165 
M311.910370,548.442566 
	C310.153992,552.920532 312.737915,552.379395 315.539001,552.195862 
	C316.005066,549.198486 315.242981,547.208069 313.841827,545.406250 
	C312.466492,545.894714 312.442688,546.970886 311.910370,548.442566 
z"/>
<path fill="#000000" opacity="1.000000" stroke="none" 
	d="
M210.685303,138.552963 
	C205.330383,145.081619 198.454254,146.713226 190.789261,146.383102 
	C187.261627,146.231171 185.882431,144.373505 185.659210,140.993515 
	C184.742477,127.113678 198.023590,116.148308 211.433212,119.759895 
	C214.052841,120.465446 215.356339,121.980278 215.346420,124.733063 
	C215.328415,129.735733 213.602005,134.149216 210.685303,138.552963 
z"/>
<path fill="#000000" opacity="1.000000" stroke="none" 
	d="
M398.702759,125.914001 
	C398.318878,121.688828 400.452209,120.172066 403.846771,119.490166 
	C416.862030,116.875679 429.206818,127.633324 428.341431,140.836731 
	C428.105591,144.434937 426.550690,146.197784 422.798218,146.400085 
	C409.712433,147.105530 401.530396,140.370468 398.702759,125.914001 
z"/>
<path fill="#000000" opacity="1.000000" stroke="none" 
	d="
M259.290649,542.374573 
	C258.607361,541.221375 258.074799,540.417297 257.032593,538.843628 
	C262.639648,538.252380 267.593140,536.923279 272.529053,539.039734 
	C276.340515,540.674011 277.038177,544.413940 274.636353,548.792358 
	C273.088379,551.614197 275.453186,557.977600 278.421600,558.852356 
	C280.576508,559.487488 281.737488,558.398621 281.648468,556.354431 
	C281.400665,550.661377 282.996918,544.787476 279.753326,538.878723 
	C290.961151,536.809875 290.850800,548.778625 297.498108,552.236023 
	C297.428375,547.959717 299.155029,543.464417 295.118896,539.682312 
	C297.780518,537.079346 300.471893,538.911682 303.922668,538.559937 
	C299.678619,545.022766 301.855225,551.397461 301.299225,557.510559 
	C301.168030,558.953369 301.673553,560.748657 299.859863,561.403687 
	C297.880096,562.118652 296.854065,560.572693 295.852570,559.214417 
	C292.701630,554.941284 289.548706,550.669556 285.942291,546.526245 
	C285.743256,551.393127 283.501465,556.395508 288.035797,560.550049 
	C280.223236,564.023865 273.703064,562.389526 270.193176,556.418884 
	C269.218109,554.760254 268.699158,552.538757 266.190308,552.441223 
	C265.281372,552.405884 264.607605,552.924866 264.413086,553.864868 
	C263.943909,556.132019 264.184448,558.158203 266.359802,559.543640 
	C266.580200,559.684021 266.613007,560.118835 266.834656,560.670166 
	C263.807861,562.776611 260.719360,561.972656 257.170135,561.059265 
	C261.207886,555.160767 259.311218,548.840698 259.290649,542.374573 
M264.393890,546.978638 
	C265.478668,549.647095 267.491333,549.219910 269.295563,548.146301 
	C271.132050,547.053528 271.200104,545.088806 270.511383,543.259460 
	C269.808594,541.392761 268.124146,540.970886 266.383514,541.335876 
	C263.520477,541.936279 264.434113,544.333984 264.393890,546.978638 
z"/>
<path fill="#000000" opacity="1.000000" stroke="none" 
	d="
M410.611816,538.165894 
	C413.187256,538.160278 415.343079,538.181641 417.495056,538.101196 
	C424.559692,537.836914 426.134705,540.232971 423.407837,547.256592 
	C420.809143,547.011780 421.411591,544.586792 420.649414,543.131714 
	C420.037933,541.964355 419.244507,541.266479 417.895966,541.556641 
	C416.739349,541.805603 416.305817,542.727600 416.297668,543.785217 
	C416.265717,547.943054 416.398651,552.105164 416.256042,556.258301 
	C416.160980,559.027039 419.375244,558.401306 420.341827,560.964050 
	C416.028900,562.507751 411.997925,562.193176 407.378662,561.044006 
	C411.065704,557.556335 413.090790,547.584595 411.480865,543.279175 
	C411.093719,542.243713 410.486237,541.566833 409.360474,541.487366 
	C408.006927,541.391785 407.204132,542.154785 406.667999,543.301208 
	C405.978668,544.775146 406.457855,547.262634 403.583466,546.907715 
	C401.651642,545.458801 403.439301,543.035095 402.222839,541.337524 
	C399.702240,542.291443 400.420990,544.391052 400.366577,546.057739 
	C400.247223,549.714478 400.378693,553.378967 400.281250,557.036926 
	C400.239746,558.593628 400.858368,560.608093 398.697021,561.302795 
	C396.669586,561.954407 395.747223,560.344238 394.754181,558.987366 
	C391.638092,554.729309 388.499786,550.487488 384.493256,545.049194 
	C384.740540,551.224121 382.512024,556.184937 387.033386,560.462708 
	C384.404968,562.658630 381.886200,562.012939 379.247955,561.071777 
	C381.532715,553.734680 381.457916,546.681641 379.389587,539.233826 
	C383.745789,536.775024 386.343231,539.224365 388.752045,542.899048 
	C390.918396,546.203918 393.417755,549.290466 396.498474,553.458618 
	C396.541138,547.969482 397.937927,543.598389 394.055267,539.216125 
	C399.783997,537.995789 405.018188,538.377930 410.611816,538.165894 
z"/>
<path fill="#000000" opacity="1.000000" stroke="none" 
	d="
M211.664551,550.068909 
	C212.762299,541.202942 218.012482,536.815796 225.267746,538.268799 
	C231.651733,539.547241 235.595840,546.869446 233.456970,553.472107 
	C231.268890,560.226685 224.305649,563.783569 218.017944,561.340149 
	C213.047501,559.408630 211.860764,555.240967 211.664551,550.068909 
M224.836731,541.483093 
	C221.696838,540.546875 219.193588,541.433472 217.743378,544.374817 
	C215.793579,548.329407 215.665359,552.427063 218.028259,556.247986 
	C220.550156,560.326111 225.473587,560.073730 227.416519,555.655090 
	C229.549591,550.803955 229.442688,545.986511 224.836731,541.483093 
z"/>
<path fill="#000000" opacity="1.000000" stroke="none" 
	d="
M245.727539,562.046631 
	C237.977188,561.433899 235.574020,558.964050 235.012497,551.404419 
	C234.711411,547.351257 235.758514,543.145996 233.166397,539.259460 
	C236.364075,537.669067 239.099380,537.707764 242.176376,539.276917 
	C238.845322,544.124878 240.237259,549.319153 240.305405,554.345520 
	C240.342056,557.048828 242.032455,558.605103 244.727829,558.829895 
	C247.381516,559.051331 249.598495,557.854553 250.008209,555.285156 
	C250.850922,550.000427 252.069687,544.544434 248.357910,539.448914 
	C250.763672,537.564148 253.158005,537.897278 256.078949,539.241760 
	C253.863251,543.127380 254.322586,547.240112 254.271164,551.312805 
	C254.188461,557.862244 252.380234,560.168945 245.727539,562.046631 
z"/>
<path fill="#000000" opacity="1.000000" stroke="none" 
	d="
M203.489960,538.104736 
	C211.538254,538.258301 212.993149,540.340454 209.958572,546.807190 
	C207.849945,546.720459 207.955627,544.979126 207.611343,543.609802 
	C207.227814,542.084290 206.266403,541.345764 204.725723,541.471191 
	C203.079575,541.605225 202.443680,542.769104 202.430191,544.219482 
	C202.393082,548.206299 202.511642,552.194763 202.457428,556.181091 
	C202.417847,559.090454 206.034958,558.287476 206.882721,561.047913 
	C202.670929,562.502869 198.657257,562.262939 193.836304,560.891113 
	C200.510666,555.968262 196.937592,549.468872 197.686615,543.766052 
	C197.821686,542.737732 197.261826,541.792542 196.085007,541.583008 
	C194.736740,541.342834 193.864059,541.983887 193.419739,543.251709 
	C192.897049,544.743225 193.023819,546.640747 190.670685,547.319092 
	C188.504547,544.695251 189.992355,541.877991 189.993149,539.185730 
	C194.454575,537.649231 198.807129,538.440430 203.489960,538.104736 
z"/>
</svg>